<svg xmlns="http://www.w3.org/2000/svg" style="display: none;">

    <!-- Download -->
    <symbol id="download-file" viewBox="0 0 16 16" fill="none">
        <path d="M11.727 9.2a.8.8 0 0 0-1.054-1.204L8.8 9.635V1.798a.8.8 0 0 0-1.6 0v7.837l-1.873-1.64A.8.8 0 0 0 4.273 9.2l3.2 2.8a.8.8 0 0 0 1.054 0l3.2-2.8ZM1.6 11.398a.8.8 0 0 0-1.6 0v2.4a1.6 1.6 0 0 0 1.6 1.6h12.8a1.6 1.6 0 0 0 1.6-1.6v-2.4a.8.8 0 0 0-1.6 0v2.4H1.6v-2.4Z"
              fill="currentColor"/>
    </symbol>

    <!-- Swap -->
    <symbol id="swap" viewBox="0 0 16 16" fill="none">
        <path fill-rule="evenodd" clip-rule="evenodd"
              d="M3.513 8.228a.8.8 0 1 1 1.119 1.144L2.762 11.2H15.2a.8.8 0 0 1 0 1.6H2.762l1.87 1.828a.8.8 0 0 1-1.119 1.144l-3.272-3.2a.8.8 0 0 1 0-1.144l3.272-3.2Zm8.974-8a.8.8 0 0 0-1.119 1.144l1.87 1.828H.8a.8.8 0 1 0 0 1.6h12.438l-1.87 1.828a.8.8 0 0 0 1.119 1.144l3.272-3.2a.8.8 0 0 0 0-1.144l-3.272-3.2Z"
              fill="currentColor"/>
    </symbol>

    <!-- JSON -->
    <symbol id="json" viewBox="0 0 100 100" fill="none" preserveAspectRatio="xMidYMid meet">
        <g transform="translate(-25, -25) scale(1.5)">
            <path fill="currentColor" fill-rule="nonzero"
                  d="M73.333,39.996v-6.66c0,-7.361 -5.97,-13.336 -13.333,-13.336v6.67c3.679,0 6.667,2.986 6.667,6.666v6.66c0,4.006 1.803,7.559 4.6,10.004c-2.797,2.444 -4.6,5.992 -4.6,10v6.666c0,3.682 -2.988,6.667 -6.67,6.667v6.667c7.359,0 13.336,-5.967 13.336,-13.334v-6.666c0,-3.682 2.988,-6.667 6.667,-6.667v-6.67c-3.685,0 -6.667,-2.986 -6.667,-6.667zM33.337,40v-6.667c0,-3.682 2.988,-6.667 6.67,-6.667v-6.666c-7.363,0 -13.337,5.967 -13.337,13.333l-0.003,6.667c0,3.682 -2.985,6.666 -6.667,6.666v6.667v0l0.003,0.003c3.682,0 6.667,2.985 6.667,6.667v6.66c0,7.36 5.967,13.337 13.333,13.337v-6.67c-3.682,0 -6.666,-2.985 -6.666,-6.667v-6.66c0,-4.007 -1.804,-7.559 -4.6,-10.003c2.796,-2.445 4.6,-5.995 4.6,-10z"/>
        </g>
    </symbol>

    <!-- GitHub -->
    <symbol id="github" viewBox="0 0 24 24" fill="none" stroke="currentColor" stroke-width="2" stroke-linecap="round"
            stroke-linejoin="round">
        <path d="M9 19c-5 1.5-5-2.5-7-3m14 6v-3.87a3.37 3.37 0 0 0-.94-2.61c3.14-.35 6.44-1.54 6.44-7A5.44 5.44 0 0 0 20 4.77 5.07 5.07 0 0 0 19.91 1S18.73.65 16 2.48a13.38 13.38 0 0 0-7 0C6.27.65 5.09 1 5.09 1A5.07 5.07 0 0 0 5 4.77a5.44 5.44 0 0 0-1.5 3.78c0 5.42 3.3 6.61 6.44 7A3.37 3.37 0 0 0 9 18.13V22"/>
    </symbol>

    <!-- OPKG -->
    <symbol id="opkg" viewBox="0 0 256 256">
        <g transform="scale(6.4,6.4)">
            <path d="M4.207,35.5l2.573,-2.574l-0.328,-0.353c-3.193,-3.43 -4.952,-7.896 -4.952,-12.573c0,-10.201 8.299,-18.5 18.5,-18.5c0.776,0 1.598,0.062 2.5,0.19v4.032c-0.839,-0.147 -1.677,-0.222 -2.5,-0.222c-7.995,0 -14.5,6.505 -14.5,14.5c0,3.578 1.337,7.023 3.765,9.701l0.353,0.389l2.883,-2.883v8.293z"
                  fill="#379dd8"/>
            <path d="M20,2c0.627,0 1.287,0.042 2,0.129v3.009c-0.67,-0.092 -1.339,-0.138 -2,-0.138c-8.271,0 -15,6.729 -15,15c0,3.702 1.383,7.267 3.894,10.037l0.705,0.778l0.743,-0.743l1.658,-1.658v6.586h-6.586l1.379,-1.379l0.682,-0.682l-0.657,-0.706c-3.107,-3.338 -4.818,-7.682 -4.818,-12.233c0,-9.925 8.075,-18 18,-18M20,1c-10.493,0 -19,8.507 -19,19c0,4.994 1.934,9.527 5.086,12.914l-3.086,3.086h10v-10l-3.365,3.365c-2.248,-2.48 -3.635,-5.753 -3.635,-9.365c0,-7.732 6.268,-14 14,-14c1.031,0 2.033,0.119 3,0.33v-5.071c-0.98,-0.155 -1.977,-0.259 -3,-0.259z"
                  fill="#379dd8"/>
            <g>
                <path d="M20,38.5c-0.776,0 -1.598,-0.062 -2.5,-0.19v-4.032c0.839,0.147 1.677,0.222 2.5,0.222c7.995,0 14.5,-6.505 14.5,-14.5c0,-3.583 -1.336,-7.03 -3.761,-9.706l-0.353,-0.389l-2.886,2.888v-8.293h8.293l-2.581,2.582l0.328,0.354c3.198,3.436 4.96,7.898 4.96,12.564c0,10.201 -8.299,18.5 -18.5,18.5z"
                      fill="#379dd8"/>
                <path d="M34.586,5l-1.387,1.387l-0.682,0.682l0.657,0.706c3.112,3.344 4.826,7.686 4.826,12.225c0,9.925 -8.075,18 -18,18c-0.627,0 -1.287,-0.042 -2,-0.129v-3.009c0.67,0.092 1.339,0.138 2,0.138c8.271,0 15,-6.729 15,-15c0,-3.708 -1.381,-7.274 -3.89,-10.041l-0.705,-0.778l-0.743,0.743l-1.662,1.662v-6.586h6.586M37,4h-10v10l3.369,-3.369c2.249,2.48 3.631,5.757 3.631,9.369c0,7.732 -6.268,14 -14,14c-1.031,0 -2.033,-0.119 -3,-0.33v5.071c0.98,0.155 1.977,0.259 3,0.259c10.493,0 19,-8.507 19,-19c0,-4.993 -1.942,-9.519 -5.094,-12.906l3.094,-3.094z"
                      fill="#379dd8"/>
            </g>
        </g>
    </symbol>

    <!-- Status -->
    <symbol id="status" viewBox="0 0 24 24" fill="none" stroke="currentColor" stroke-width="2" stroke-linecap="round"
            stroke-linejoin="round">
        <circle cx="12" cy="12" r="10"></circle>
        <line x1="12" y1="16" x2="12" y2="12"></line>
        <line x1="12" y1="8" x2="12" y2="8"></line>
    </symbol>

    <!-- Plus -->
    <symbol id="plus" viewBox="0 0 16 16" fill="none">
        <path fill-rule="evenodd" clip-rule="evenodd"
              d="M8.584 1.167a.75.75 0 1 0-1.5 0V7.25H1a.75.75 0 0 0 0 1.5h6.083v6.083a.75.75 0 0 0 1.5 0V8.75h6.084a.75.75 0 0 0 0-1.5H8.584V1.167Z"
              fill="currentColor"/>
    </symbol>

    <!-- Generate -->
    <symbol id="generate" viewBox="0 0 24 24" fill="none">
        <g transform="scale(0.48)">
            <path d="M25,48.791c0,0-21-9.694-21-39.871c13.063-2.868,16.902-7.823,21-7.823s7.937,4.955,21,7.823C46,38.097,25,48.791,25,48.791z"
                  fill="none" stroke="currentColor" stroke-width="2" stroke-linecap="round" stroke-miterlimit="10"/>
            <path d="M27.1,34H23l-0.5-3.2c-0.4-0.1-0.7-0.2-1.1-0.4l-2.7,1.8l-3-3l1.8-2.7c-0.2-0.3-0.3-0.7-0.4-1L14,25v-4.2l3.1-0.5c0.1-0.4,0.3-0.7,0.4-1.1l-1.8-2.5l3-3l2.7,1.9c0.3-0.2,0.7-0.3,1-0.4L23,12h4.2l0.5,3.2c0.3,0.1,0.7,0.2,1,0.4l2.6-1.9l2.9,2.9l-1.8,2.7c0.2,0.3,0.3,0.7,0.4,1l3.2,0.5V25l-3.1,0.6c-0.1,0.3-0.2,0.7-0.4,1.1l1.9,2.6l-3,3l-2.7-1.8c-0.4,0.2-0.7,0.3-1,0.4L27.1,34z M24.6,32h0.8l0.5-2.8l0.6-0.2c0.6-0.2,1.2-0.4,1.8-0.7l0.5-0.3l2.3,1.6l0.6-0.6L30,26.7l0.4-0.6c0.3-0.5,0.5-1.1,0.7-1.7l0.2-0.6l2.7-0.6v-0.8L31.2,22L31,21.4c-0.2-0.6-0.4-1.2-0.7-1.8L30,19.1l1.6-2.3l-0.5-0.5L28.8,18l-0.6-0.4c-0.5-0.3-1.1-0.5-1.7-0.7l-0.6-0.2L25.5,14h-0.8l-0.5,2.8l-0.6,0.1c-0.6,0.2-1.2,0.5-1.9,0.8l-0.5,0.2l-2.3-1.6l-0.6,0.6l1.6,2.3l-0.4,0.5c-0.3,0.5-0.5,1.1-0.6,1.6L18.8,22L16,22.5v0.8l2.7,0.5l0.2,0.6c0.2,0.5,0.4,1.2,0.7,1.8l0.3,0.5L18.3,29l0.6,0.6l2.4-1.6l0.6,0.4c0.5,0.3,1.1,0.5,1.7,0.7l0.6,0.2L24.6,32z M25,26.9c-2.2,0-4-1.8-4-4s1.8-4,4-4s4,1.8,4,4C29,25.2,27.2,26.9,25,26.9z M25,21c-1.1,0-2,0.9-2,2s0.9,2,2,2s2-0.9,2-2C27,21.8,26.1,21,25,21z"
                  fill="currentColor"/>
        </g>
    </symbol>

    <!-- Start -->
    <symbol id="start" viewBox="0 0 16 16" fill="none">
        <path d="M5.2 3.2a1 1 0 0 0-1.6.8v8a1 1 0 0 0 1.6.8l6-4a1 1 0 0 0 0-1.6l-6-4Z" fill="currentColor"/>
    </symbol>
</svg>
