<svg xmlns="http://www.w3.org/2000/svg" style="display: none;">
    <!-- Download -->
    <symbol id="download-file" viewBox="0 0 16 16" fill="none">
        <path d="M11.727 9.2a.8.8 0 0 0-1.054-1.204L8.8 9.635V1.798a.8.8 0 0 0-1.6 0v7.837l-1.873-1.64A.8.8 0 0 0 4.273 9.2l3.2 2.8a.8.8 0 0 0 1.054 0l3.2-2.8ZM1.6 11.398a.8.8 0 0 0-1.6 0v2.4a1.6 1.6 0 0 0 1.6 1.6h12.8a1.6 1.6 0 0 0 1.6-1.6v-2.4a.8.8 0 0 0-1.6 0v2.4H1.6v-2.4Z" fill="currentColor"/>
    </symbol>

    <!-- Swap -->
    <symbol id="swap" viewBox="0 0 16 16" fill="none">
        <path fill-rule="evenodd" clip-rule="evenodd"
              d="M3.513 8.228a.8.8 0 1 1 1.119 1.144L2.762 11.2H15.2a.8.8 0 0 1 0 1.6H2.762l1.87 1.828a.8.8 0 0 1-1.119 1.144l-3.272-3.2a.8.8 0 0 1 0-1.144l3.272-3.2Zm8.974-8a.8.8 0 0 0-1.119 1.144l1.87 1.828H.8a.8.8 0 1 0 0 1.6h12.438l-1.87 1.828a.8.8 0 0 0 1.119 1.144l3.272-3.2a.8.8 0 0 0 0-1.144l-3.272-3.2Z"
              fill="currentColor"/>
    </symbol>

    <!-- JSON -->
    <symbol id="json" viewBox="0 0 100 100" fill="none" preserveAspectRatio="xMidYMid meet">
        <g transform="translate(-25, -25) scale(1.5)">
            <path fill="currentColor" fill-rule="nonzero"
                  d="M73.333,39.996v-6.66c0,-7.361 -5.97,-13.336 -13.333,-13.336v6.67c3.679,0 6.667,2.986 6.667,6.666v6.66c0,4.006 1.803,7.559 4.6,10.004c-2.797,2.444 -4.6,5.992 -4.6,10v6.666c0,3.682 -2.988,6.667 -6.67,6.667v6.667c7.359,0 13.336,-5.967 13.336,-13.334v-6.666c0,-3.682 2.988,-6.667 6.667,-6.667v-6.67c-3.685,0 -6.667,-2.986 -6.667,-6.667zM33.337,40v-6.667c0,-3.682 2.988,-6.667 6.67,-6.667v-6.666c-7.363,0 -13.337,5.967 -13.337,13.333l-0.003,6.667c0,3.682 -2.985,6.666 -6.667,6.666v6.667v0l0.003,0.003c3.682,0 6.667,2.985 6.667,6.667v6.66c0,7.36 5.967,13.337 13.333,13.337v-6.67c-3.682,0 -6.666,-2.985 -6.666,-6.667v-6.66c0,-4.007 -1.804,-7.559 -4.6,-10.003c2.796,-2.445 4.6,-5.995 4.6,-10z"/>
        </g>
    </symbol>

    <!-- Sun -->
    <symbol id="sun" viewBox="0 0 24 24" fill="none" stroke="currentColor" stroke-width="2" stroke-linecap="round" stroke-linejoin="round">
        <circle cx="12" cy="12" r="5"></circle>
        <line x1="12" y1="1" x2="12" y2="3"></line>
        <line x1="12" y1="21" x2="12" y2="23"></line>
        <line x1="4.22" y1="4.22" x2="5.64" y2="5.64"></line>
        <line x1="18.36" y1="18.36" x2="19.78" y2="19.78"></line>
        <line x1="1" y1="12" x2="3" y2="12"></line>
        <line x1="21" y1="12" x2="23" y2="12"></line>
        <line x1="4.22" y1="19.78" x2="5.64" y2="18.36"></line>
        <line x1="18.36" y1="5.64" x2="19.78" y2="4.22"></line>
    </symbol>

    <!-- Moon -->
    <symbol id="moon" viewBox="0 0 24 24" fill="none" stroke="currentColor" stroke-width="2" stroke-linecap="round" stroke-linejoin="round">
        <path d="M21 12.79A9 9 0 1111.21 3 7 7 0 0021 12.79z"></path>
    </symbol>

    <!-- GitHub Light -->
    <symbol id="github-light" viewBox="0 0 24 24" fill="none" stroke="currentColor" stroke-width="2" stroke-linecap="round" stroke-linejoin="round">
        <path d="M9 19c-5 1.5-5-2.5-7-3m14 6v-3.87a3.37 3.37 0 0 0-.94-2.61c3.14-.35 6.44-1.54 6.44-7A5.44 5.44 0 0 0 20 4.77 5.07 5.07 0 0 0 19.91 1S18.73.65 16 2.48a13.38 13.38 0 0 0-7 0C6.27.65 5.09 1 5.09 1A5.07 5.07 0 0 0 5 4.77a5.44 5.44 0 0 0-1.5 3.78c0 5.42 3.3 6.61 6.44 7A3.37 3.37 0 0 0 9 18.13V22"/>
    </symbol>

    <!-- GitHub Dark -->
    <symbol id="github-dark" viewBox="0 0 24 24" fill="none" stroke="currentColor" stroke-width="2" stroke-linecap="round" stroke-linejoin="round">
        <path d="M9 19c-5 1.5-5-2.5-7-3m14 6v-3.87a3.37 3.37 0 0 0-.94-2.61c3.14-.35 6.44-1.54 6.44-7A5.44 5.44 0 0 0 20 4.77 5.07 5.07 0 0 0 19.91 1S18.73.65 16 2.48a13.38 13.38 0 0 0-7 0C6.27.65 5.09 1 5.09 1A5.07 5.07 0 0 0 5 4.77a5.44 5.44 0 0 0-1.5 3.78c0 5.42 3.3 6.61 6.44 7A3.37 3.37 0 0 0 9 18.13V22"/>
    </symbol>

    <!-- Add Object-Group -->
    <symbol id="plus" viewBox="0 0 24 24">
        <path d="M19 13h-6v6h-2v-6H5v-2h6V5h2v6h6v2z" fill="currentColor"/>
    </symbol>

    <!-- Delete Object-Group -->
    <symbol id="x" viewBox="0 0 24 24">
        <path d="M18.3 5.71a.996.996 0 00-1.41 0L12 10.59 7.11 5.7A.996.996 0 005.7 7.11L10.59 12 5.7 16.89a.996.996 0 001.41 1.41L12 13.41l4.89 4.89a.996.996 0 001.41-1.41L13.41 12l4.89-4.89c.38-.38.38-1.02 0-1.4z" fill="currentColor"/>
    </symbol>

    <!-- OPKG -->
    <symbol id="opkg" viewBox="0 0 256 256">
        <g transform="scale(6.4,6.4)">
            <path d="M4.207,35.5l2.573,-2.574l-0.328,-0.353c-3.193,-3.43 -4.952,-7.896 -4.952,-12.573c0,-10.201 8.299,-18.5 18.5,-18.5c0.776,0 1.598,0.062 2.5,0.19v4.032c-0.839,-0.147 -1.677,-0.222 -2.5,-0.222c-7.995,0 -14.5,6.505 -14.5,14.5c0,3.578 1.337,7.023 3.765,9.701l0.353,0.389l2.883,-2.883v8.293z"
                  fill="#379dd8"/>
            <path d="M20,2c0.627,0 1.287,0.042 2,0.129v3.009c-0.67,-0.092 -1.339,-0.138 -2,-0.138c-8.271,0 -15,6.729 -15,15c0,3.702 1.383,7.267 3.894,10.037l0.705,0.778l0.743,-0.743l1.658,-1.658v6.586h-6.586l1.379,-1.379l0.682,-0.682l-0.657,-0.706c-3.107,-3.338 -4.818,-7.682 -4.818,-12.233c0,-9.925 8.075,-18 18,-18M20,1c-10.493,0 -19,8.507 -19,19c0,4.994 1.934,9.527 5.086,12.914l-3.086,3.086h10v-10l-3.365,3.365c-2.248,-2.48 -3.635,-5.753 -3.635,-9.365c0,-7.732 6.268,-14 14,-14c1.031,0 2.033,0.119 3,0.33v-5.071c-0.98,-0.155 -1.977,-0.259 -3,-0.259z"
                  fill="#379dd8"/>
            <g>
                <path d="M20,38.5c-0.776,0 -1.598,-0.062 -2.5,-0.19v-4.032c0.839,0.147 1.677,0.222 2.5,0.222c7.995,0 14.5,-6.505 14.5,-14.5c0,-3.583 -1.336,-7.03 -3.761,-9.706l-0.353,-0.389l-2.886,2.888v-8.293h8.293l-2.581,2.582l0.328,0.354c3.198,3.436 4.96,7.898 4.96,12.564c0,10.201 -8.299,18.5 -18.5,18.5z"
                      fill="#379dd8"/>
                <path d="M34.586,5l-1.387,1.387l-0.682,0.682l0.657,0.706c3.112,3.344 4.826,7.686 4.826,12.225c0,9.925 -8.075,18 -18,18c-0.627,0 -1.287,-0.042 -2,-0.129v-3.009c0.67,0.092 1.339,0.138 2,0.138c8.271,0 15,-6.729 15,-15c0,-3.708 -1.381,-7.274 -3.89,-10.041l-0.705,-0.778l-0.743,0.743l-1.662,1.662v-6.586h6.586M37,4h-10v10l3.369,-3.369c2.249,2.48 3.631,5.757 3.631,9.369c0,7.732 -6.268,14 -14,14c-1.031,0 -2.033,-0.119 -3,-0.33v5.071c0.98,0.155 1.977,0.259 3,0.259c10.493,0 19,-8.507 19,-19c0,-4.993 -1.942,-9.519 -5.094,-12.906l3.094,-3.094z"
                      fill="#379dd8"/>
            </g>
        </g>
    </symbol>
</svg>
